<?xml version="1.0" encoding="UTF-8" standalone="no"?><svg xmlns="http://www.w3.org/2000/svg" xmlns:xlink="http://www.w3.org/1999/xlink" fill="#ffffff" height="144.8" preserveAspectRatio="xMidYMid meet" version="1" viewBox="1053.3 719.3 457.3 144.8" width="457.3" zoomAndPan="magnify"><g><g id="change1_12"><path d="M1374.8092,728.80615L1374.8092,728.80615L1278.8091,728.80615C1277.9639,728.80615,1277.2788,728.1211,1277.2788,727.2759C1277.2788,726.43066,1277.9639,725.7455,1278.8091,725.7455L1278.8091,725.7455L1374.8092,725.7456C1375.6544,725.7456,1376.3395,726.43066,1376.3395,727.2759C1376.3395,728.1211,1375.6544,728.80615,1374.8092,728.80615 Z"/></g><g id="change1_14"><path d="M1279.8911,728.3579L1279.8911,728.3579L1247.8912,760.3579C1247.2936,760.95557,1246.3248,760.95557,1245.7272,760.3579C1245.1295,759.76025,1245.1295,758.79126,1245.7272,758.1937L1245.7272,758.1937L1277.727,726.1937C1278.3245,725.59607,1279.2935,725.59607,1279.8911,726.1937C1280.4889,726.7914,1280.4889,727.7604,1279.8911,728.3579 Z"/></g><g id="change1_21"><path d="M1054.8092,757.7454L1054.8092,757.7454L1278.8091,757.7455C1279.6543,757.7455,1280.3395,758.43054,1280.3395,759.27576C1280.3395,760.121,1279.6543,760.806,1278.8091,760.806L1278.8091,760.806L1054.8092,760.8061C1053.964,760.80615,1053.2789,760.121,1053.2789,759.2759C1053.2789,758.43066,1053.964,757.7455,1054.8092,757.7454 Z"/></g><g id="change1_15"><path d="M1279.8911,758.1936L1279.8911,758.1936L1343.8914,822.1938C1344.489,822.79144,1344.489,823.7603,1343.8914,824.358C1343.2937,824.9556,1342.3247,824.9556,1341.7273,824.358L1341.7273,824.358L1277.727,760.3579C1277.1294,759.76025,1277.1294,758.79126,1277.727,758.1936C1278.3245,757.59607,1279.2935,757.59607,1279.8911,758.1936 Z"/></g><g id="change1_1"><path d="M1342.8093,821.74554L1342.8093,821.74554L1406.8092,821.7455C1407.6544,821.7455,1408.3395,822.43054,1408.3395,823.27576C1408.3395,824.121,1407.6544,824.80615,1406.8092,824.80615L1406.8092,824.80615L1342.8093,824.8062C1341.9641,824.8062,1341.279,824.12103,1341.279,823.27594C1341.279,822.4307,1341.9641,821.74554,1342.8093,821.74554 Z"/></g><g id="change1_11"><path d="M1309.7272,790.19366L1309.7272,790.19366L1341.7273,758.1937C1342.3247,757.59607,1343.2937,757.59607,1343.8914,758.1937C1344.489,758.79126,1344.489,759.76025,1343.8914,760.3579L1343.8914,760.3579L1311.8912,792.35785C1311.2936,792.9555,1310.3246,792.9555,1309.7272,792.35785C1309.1295,791.7602,1309.1295,790.7912,1309.7272,790.19366 Z"/></g><g id="change1_5"><path d="M1342.8093,757.7455L1342.8093,757.7455L1438.8091,757.7454C1439.6543,757.7454,1440.3394,758.4305,1440.3394,759.2757C1440.3394,760.1209,1439.6543,760.80597,1438.8091,760.80597L1438.8091,760.80597L1342.8093,760.80615C1341.9641,760.80615,1341.279,760.121,1341.279,759.27576C1341.279,758.43066,1341.9641,757.7455,1342.8093,757.7455 Z"/></g><g id="change1_8"><path d="M1054.8092,789.74554L1054.8092,789.74554L1278.8091,789.746C1279.6543,789.746,1280.3395,790.43115,1280.3395,791.27637C1280.3395,792.12146,1279.6543,792.80664,1278.8091,792.80664L1278.8091,792.80664L1054.8092,792.8061C1053.964,792.80615,1053.2789,792.1211,1053.2789,791.2759C1053.2789,790.43066,1053.964,789.7456,1054.8092,789.74554 Z"/></g><g id="change1_2"><path d="M1279.8911,790.19385L1279.8911,790.19385L1343.8914,854.1938C1344.489,854.79144,1344.489,855.7603,1343.8914,856.358C1343.2937,856.9556,1342.325,856.9556,1341.7273,856.358L1341.7273,856.358L1277.727,792.3579C1277.1294,791.76025,1277.1294,790.7915,1277.727,790.19385C1278.3247,789.5962,1279.2935,789.5962,1279.8911,790.19385 Z"/></g><g id="change1_19"><path d="M1342.8093,853.74567L1342.8093,853.74567L1470.8093,853.7461C1471.6545,853.7461,1472.3396,854.4313,1472.3396,855.2765C1472.3396,856.1216,1471.6545,856.80676,1470.8093,856.80676L1470.8093,856.80676L1342.8093,856.8062C1341.9641,856.8062,1341.279,856.12115,1341.279,855.27594C1341.279,854.4307,1341.9641,853.74567,1342.8093,853.74567 Z"/></g><g id="change1_17"><path d="M1405.7272,854.19385L1405.7272,854.19385L1437.727,822.1937C1438.3247,821.59607,1439.2935,821.59607,1439.8911,822.1937C1440.4888,822.7914,1440.4888,823.76025,1439.8911,824.3579L1439.8911,824.3579L1407.8912,856.3579C1407.2936,856.95557,1406.3248,856.95557,1405.7272,856.3579C1405.1295,855.76025,1405.1295,854.7915,1405.7272,854.19385 Z"/></g><g id="change1_18"><path d="M1438.8091,821.7455L1438.8091,821.7455L1502.8093,821.746C1503.6545,821.746,1504.3396,822.43115,1504.3396,823.27625C1504.3396,824.12146,1503.6545,824.80664,1502.8093,824.80664L1502.8093,824.80664L1438.8091,824.80615C1437.9639,824.80615,1437.2788,824.121,1437.2788,823.2759C1437.2788,822.43066,1437.9639,821.7455,1438.8091,821.7455 Z"/></g><g id="change1_10"><path d="M1054.8092,821.7454L1054.8092,821.7454L1182.8092,821.7455C1183.6544,821.7455,1184.3395,822.43054,1184.3395,823.27576C1184.3395,824.121,1183.6544,824.80615,1182.8092,824.80615L1182.8092,824.80615L1054.8092,824.8061C1053.964,824.80615,1053.2789,824.121,1053.2789,823.2759C1053.2789,822.43066,1053.964,821.7455,1054.8092,821.7454 Z"/></g><g id="change1_3"><path d="M1183.8912,822.19385L1183.8912,822.19385L1215.8912,854.1938C1216.4889,854.79144,1216.4889,855.7603,1215.8912,856.358C1215.2936,856.9556,1214.3246,856.9556,1213.7269,856.358L1213.7269,856.358L1181.7272,824.3579C1181.1295,823.7604,1181.1295,822.7914,1181.7272,822.19385C1182.3248,821.5962,1183.2936,821.5962,1183.8912,822.19385 Z"/></g><g id="change1_4"><path d="M1214.8092,853.74554L1214.8092,853.74554L1278.8091,853.7456C1279.6543,853.7455,1280.3395,854.43066,1280.3395,855.2759C1280.3395,856.1211,1279.6543,856.80615,1278.8091,856.80615L1278.8091,856.80615L1214.8092,856.8062C1213.964,856.8062,1213.2787,856.12115,1213.2789,855.27594C1213.2787,854.4307,1213.964,853.74567,1214.8092,853.74554 Z"/></g><g id="change1_13"><path d="M1446.3154,759.7375L1446.3154,759.7375L1446.3152,759.738C1446.0603,763.8835,1442.4929,767.0373,1438.3474,766.7824C1434.2021,766.5275,1431.0482,762.9604,1431.3031,758.8149L1431.3031,758.8149L1431.3031,758.8143C1431.558,754.66876,1435.125,751.51483,1439.2705,751.7697C1443.416,752.0246,1446.5703,755.592,1446.3154,759.7375 Z"/></g><g id="change1_9"><path d="M1414.3153,823.7373L1414.3153,823.7373L1414.3153,823.7379C1414.0604,827.8834,1410.4933,831.03735,1406.3478,830.7825C1402.2023,830.5276,1399.0482,826.96045,1399.3031,822.81494L1399.3031,822.81494L1399.3031,822.81433C1399.558,818.6688,1403.1254,815.5149,1407.2709,815.7698C1411.4161,816.02466,1414.5702,819.5918,1414.3153,823.7373 Z"/></g><g id="change1_6"><path d="M1478.3152,855.73737L1478.3152,855.73737L1478.3152,855.738C1478.0603,859.88336,1474.4932,863.03735,1470.3477,862.7825C1466.2021,862.5276,1463.0483,858.96045,1463.3032,854.81494L1463.3032,854.81494L1463.3032,854.81445C1463.5581,850.66895,1467.1252,847.515,1471.2708,847.7699C1475.4163,848.0248,1478.5701,851.592,1478.3152,855.73737 Z"/></g><g id="change1_7"><path d="M1510.3154,823.7373L1510.3154,823.7373L1510.3152,823.7379C1510.0603,827.8834,1506.4932,831.03735,1502.3479,830.7825C1498.2024,830.5276,1495.0483,826.96045,1495.3032,822.81494L1495.3032,822.81494L1495.3032,822.81433C1495.5581,818.6688,1499.1252,815.5149,1503.2708,815.7698C1507.4163,816.02466,1510.5703,819.5918,1510.3154,823.7373 Z"/></g><g id="change1_20"><path d="M1390.9352,728.23804L1390.9352,728.23804C1390.6183,732.7057,1386.7399,736.07056,1382.2721,735.7538L1382.2721,735.7538C1377.8046,735.437,1374.4396,731.5585,1374.7565,727.0908L1374.7565,727.0908C1375.0731,722.62317,1378.9518,719.2583,1383.4193,719.5751L1383.4193,719.5751C1387.8871,719.89185,1391.2518,723.7704,1390.9352,728.23804L1390.9352,728.23804 M1387.7147,728.00964L1387.7147,728.00964C1387.9054,725.32056,1385.8802,722.9862,1383.191,722.79553L1383.191,722.79553C1380.5021,722.60486,1378.1674,724.6301,1377.9767,727.3192L1377.9767,727.3192C1377.786,730.0083,1379.8114,732.34265,1382.5006,732.5333L1382.5006,732.5333C1385.1896,732.724,1387.524,730.6987,1387.7147,728.00964 Z"/></g><g id="change1_16"><path d="M1294.639,856.2521L1294.639,856.2521C1294.3224,860.7197,1290.4437,864.0846,1285.9762,863.7678L1285.9762,863.7678C1281.5084,863.45105,1278.1436,859.5725,1278.4602,855.10486L1278.4602,855.10486C1278.7771,850.6373,1282.6556,847.27234,1287.1234,847.5891L1287.1234,847.5891C1291.5912,847.906,1294.9559,851.7844,1294.639,856.2521L1294.639,856.2521 M1291.4188,856.0238L1291.4188,856.0238C1291.6095,853.3346,1289.5841,851.00024,1286.8951,850.8096L1286.8951,850.8096C1284.2059,850.6189,1281.8715,852.6443,1281.6808,855.33325L1281.6808,855.33325C1281.4901,858.02234,1283.5155,860.3568,1286.2045,860.5475L1286.2045,860.5475C1288.8937,860.73816,1291.2281,858.71277,1291.4188,856.0238 Z"/></g></g></svg>